<?xml version="1.0" encoding="utf-8"?>
<!-- Generator: Adobe Illustrator 19.2.1, SVG Export Plug-In . SVG Version: 6.00 Build 0)  -->
<svg version="1.1" id="Layer_1" xmlns="http://www.w3.org/2000/svg" xmlns:xlink="http://www.w3.org/1999/xlink" x="0px" y="0px"
	 viewBox="0 0 51.80259 45.8" style="enable-background:new 0 0 51.80259 45.8;" xml:space="preserve">
<style type="text/css">
	.st0{fill:#F26E5F;stroke:#F26E5F;stroke-width:0.8;stroke-miterlimit:10;}
	.st1{fill:#F26E5F;}
</style>
<g>
	<g>
		<g>
			<g>
				<g>
					<g>
						<path class="st0" d="M50.75127,38.38999L29.80132,2.65C28.9713,1.23997,27.51128,0.4,25.90129,0.4
							s-3.07001,0.83997-3.90002,2.25L1.05132,38.38999c-0.86005,1.46997-0.87,3.22998-0.02002,4.71997
							C1.85131,44.54002,3.31127,45.4,4.94127,45.4h41.92004c1.63,0,3.08997-0.85999,3.90997-2.29004
							C51.62127,41.61997,51.61132,39.85996,50.75127,38.38999z M48.17131,41.61997c-0.29004,0.5-0.76001,0.78003-1.31,0.78003
							H4.94127c-0.54999,0-1.01996-0.28003-1.31-0.78003c-0.31-0.53998-0.31-1.17999,0.01001-1.71997L24.5913,4.16996
							C24.88127,3.68998,25.36131,3.4,25.90129,3.4s1.02002,0.28998,1.31,0.76996L48.1613,39.9
							C48.48131,40.43998,48.48131,41.07999,48.17131,41.61997z"/>
					</g>
				</g>
			</g>
		</g>
	</g>
	<g>
		<g>
			<g>
				<g>
					<g>
						<circle class="st1" cx="25.90129" cy="35.89999" r="3.40001"/>
					</g>
				</g>
			</g>
		</g>
	</g>
	<g>
		<g>
			<g>
				<g>
					<g>
						<path class="st1" d="M28.30132,14.8992v14c0,1.32001-1.08002,2.39996-2.40002,2.39996s-2.40002-1.07996-2.40002-2.39996v-14
							c0-1.32001,1.08002-2.40002,2.40002-2.40002S28.30132,13.57919,28.30132,14.8992z"/>
					</g>
				</g>
			</g>
		</g>
	</g>
</g>
</svg>
